<?xml version="1.0" encoding="UTF-8" standalone="no"?>
<!-- Generator: Adobe Illustrator 15.1.0, SVG Export Plug-In . SVG Version: 6.00 Build 0)  -->

<svg
   xmlns:dc="http://purl.org/dc/elements/1.1/"
   xmlns:cc="http://creativecommons.org/ns#"
   xmlns:rdf="http://www.w3.org/1999/02/22-rdf-syntax-ns#"
   xmlns:svg="http://www.w3.org/2000/svg"
   xmlns="http://www.w3.org/2000/svg"
   xmlns:sodipodi="http://sodipodi.sourceforge.net/DTD/sodipodi-0.dtd"
   xmlns:inkscape="http://www.inkscape.org/namespaces/inkscape"
   version="1.1"
   id="Layer_4"
   x="0px"
   y="0px"
   width="249.99899"
   height="250.00101"
   viewBox="0 0 249.99899 250.001"
   enable-background="new 0 0 255 255.001"
   xml:space="preserve"
   inkscape:version="0.48.1 "
   sodipodi:docname="AJAX.svg"><metadata
   id="metadata160"><rdf:RDF><cc:Work
       rdf:about=""><dc:format>image/svg+xml</dc:format><dc:type
         rdf:resource="http://purl.org/dc/dcmitype/StillImage" /></cc:Work></rdf:RDF></metadata><defs
   id="defs158" /><sodipodi:namedview
   pagecolor="#ffffff"
   bordercolor="#666666"
   borderopacity="1"
   objecttolerance="10"
   gridtolerance="10"
   guidetolerance="10"
   inkscape:pageopacity="0"
   inkscape:pageshadow="2"
   inkscape:window-width="640"
   inkscape:window-height="480"
   id="namedview156"
   showgrid="false"
   fit-margin-top="0"
   fit-margin-left="0"
   fit-margin-right="0"
   fit-margin-bottom="0"
   inkscape:zoom="1.0235254"
   inkscape:cx="125"
   inkscape:cy="125.0005"
   inkscape:window-x="0"
   inkscape:window-y="0"
   inkscape:window-maximized="0"
   inkscape:current-layer="g7" />
<g
   id="g3"
   transform="translate(-2.5,-2.5000035)">
	<circle
   cx="127.5"
   cy="128.16701"
   r="122.191"
   id="circle5"
   sodipodi:cx="127.5"
   sodipodi:cy="128.16701"
   sodipodi:rx="122.191"
   sodipodi:ry="122.191"
   style="fill:#ffffff"
   d="m 249.691,128.16701 c 0,67.48422 -54.70677,122.191 -122.191,122.191 -67.484227,0 -122.1910019,-54.70678 -122.1910019,-122.191 C 5.3089981,60.682781 60.015773,5.9760056 127.5,5.9760056 c 67.48423,0 122.191,54.7067754 122.191,122.1910044 z" />
	<g
   id="g7">
		<path
   d="m 127.5,217.496 c -24.038,0 -46.638,-9.361 -63.636,-26.359 C 46.866,174.139 37.505,151.539 37.505,127.5 c 0,-24.039 9.361,-46.638 26.359,-63.636 16.998,-16.998 39.598,-26.358 63.636,-26.358 24.039,0 46.639,9.361 63.637,26.358 16.998,16.998 26.359,39.598 26.359,63.636 0,24.039 -9.361,46.639 -26.359,63.637 -16.998,16.998 -39.598,26.359 -63.637,26.359 z m 0,-176.781 c -47.853,0 -86.785,38.932 -86.785,86.785 0,47.854 38.932,86.785 86.785,86.785 47.854,0 86.785,-38.932 86.785,-86.785 0,-47.853 -38.931,-86.785 -86.785,-86.785 z"
   id="path9"
   inkscape:connector-curvature="0" />
		<path
   d="m 127.5,243.835 c -31.074,0 -60.288,-12.101 -82.261,-34.073 C 23.266,187.79 11.166,158.574 11.166,127.5 11.166,96.426 23.267,67.212 45.239,45.24 67.212,23.267 96.426,11.166 127.5,11.166 c 31.074,0 60.288,12.101 82.262,34.074 21.973,21.973 34.073,51.187 34.073,82.26 0,31.074 -12.101,60.289 -34.073,82.262 -21.974,21.972 -51.188,34.073 -82.262,34.073 z m 0,-228.656 c -61.934,0 -112.321,50.387 -112.321,112.321 0,61.935 50.387,112.322 112.321,112.322 61.935,0 112.322,-50.388 112.322,-112.322 0,-61.934 -50.387,-112.321 -112.322,-112.321 z"
   id="path11"
   inkscape:connector-curvature="0" />
		<path
   d="m 127.5,252.501 c -33.389,0 -64.779,-13.002 -88.389,-36.612 C 15.502,192.279 2.5,160.89 2.5,127.501 2.5,94.112 15.502,62.721 39.112,39.112 62.722,15.503 94.111,2.5 127.5,2.5 c 33.388,0 64.779,13.002 88.388,36.612 23.609,23.61 36.611,55 36.611,88.389 0,33.389 -13.002,64.778 -36.611,88.388 -23.609,23.61 -54.999,36.612 -88.388,36.612 z m 0,-244.383 C 61.673,8.118 8.118,61.673 8.118,127.501 c 0,65.827 53.555,119.382 119.382,119.382 65.827,0 119.381,-53.555 119.381,-119.382 C 246.882,61.673 193.328,8.118 127.5,8.118 z"
   id="path13"
   inkscape:connector-curvature="0" />
		<g
   id="g15">
			<g
   id="XMLID_1_">
				<g
   id="g18">
					<path
   d="m 182.921,124.109 c 0.963,2.179 4.619,4.173 4.511,7.23 -0.112,3.183 -3.6,3.527 -8.415,4.222 -3.403,0.49 -7.376,1.573 -11.124,1.806 -3.214,0.201 -7.905,-0.265 -10.822,0 -2.42,0.225 -7.211,1.208 -9.916,0.603 -2.171,-0.481 -2.957,-2.837 -5.112,-3.314 -7.199,-1.586 -10.092,4.823 -16.533,4.823 -1.629,0 -3.034,-1.012 -4.506,-1.204 -4.37,-0.574 -8.64,0.369 -12.925,-0.305 0.164,2.046 -0.354,4.775 0.301,6.328 5.165,1.256 13.25,0.782 17.432,-0.903 4.406,0.927 8.311,6.16 4.812,10.546 2.476,10.478 7.163,18.736 7.215,31.642 -2.175,7.315 -18.551,7.729 -19.839,0.301 -0.381,-2.187 1,-4.867 1.501,-7.532 1.545,-8.182 2.945,-15.746 4.812,-22.299 -1.958,-3.56 -9.426,-1.598 -14.43,-2.111 -2.452,5.337 -9.133,6.493 -10.819,0.305 -4.703,0.405 -11.147,-0.931 -14.43,0.903 1.228,10.421 5.132,18.162 4.812,30.133 -2.035,9.085 -20.048,7.019 -20.441,-1.505 -0.036,-0.855 0.538,-2.561 0.903,-3.921 1.408,-5.261 2.809,-9.065 4.209,-14.161 0.975,-3.556 2.961,-8.143 2.404,-10.847 -0.301,-1.461 -2.468,-2.468 -2.705,-4.222 -0.565,-4.169 3.487,-7.271 7.215,-7.231 2.191,0.024 3.499,1.959 5.71,2.412 4.261,0.875 7.62,-0.313 12.624,-1.204 -0.878,-5.024 2.035,-8.547 0,-12.055 0.57,-1.437 1.926,-2.087 2.705,-3.314 -0.345,-0.847 -0.345,-1.569 0,-2.412 2.749,-5.284 6.573,-10.396 12.323,-12.355 2.877,-0.979 7.665,-1.653 11.42,-0.902 2.48,0.493 5.317,3.64 8.118,3.916 2.965,0.297 5.064,-1.608 7.512,-1.505 1.248,-2.171 2.167,-4.658 4.51,-5.726 4.88,0.112 9.527,-0.093 13.829,0.301 1.617,0.148 2.873,0.794 4.506,0.602 1.814,-0.213 3.539,-1.781 4.812,-2.11 4.896,-1.256 15.618,-1.469 16.533,2.411 0.377,1.617 -3.274,4.486 -3.607,6.931 -0.205,1.458 0.181,4.097 0.895,5.723 z m -53.202,55.446 c 0.883,0.807 3.856,0.847 5.112,0.301 -2.079,-6.854 -2.392,-15.481 -5.714,-21.092 -0.309,6.248 0.674,13.78 0.602,20.791 z m -3.608,0.605 c 1.276,-6.557 0.293,-15.377 0.602,-22.905 -1.617,1.22 -1.384,3.704 -1.802,5.727 -0.738,3.556 -1.721,7.279 -2.408,11.453 -0.329,2.01 -0.068,3.775 -0.899,5.726 0.056,0.241 0.301,0.297 0.301,0.603 1.365,0.825 2.842,-0.467 4.206,-0.604 z m -5.71,-52.135 c 0.73,-8.583 -11.854,-3.487 -11.12,0.907 2.886,2.276 8.812,0.349 11.12,-0.907 z m -38.475,52.738 c 1.701,0.356 4.093,0.931 5.413,0 -1.244,-7.292 -3.001,-14.069 -5.112,-20.494 -1.2,5.549 -0.598,14.442 -0.301,20.494 z m -3.006,0.3 c -0.273,-8.885 0.67,-16.345 0.301,-24.109 -3.106,7.332 -4.908,15.976 -7.215,24.109 1.713,0.534 5.184,0.43 6.914,0 z"
   id="path20"
   inkscape:connector-curvature="0" />
					<path
   d="m 181.721,85.838 c -0.565,0.923 -1.894,1.124 -2.407,0.907 -5.847,-2.508 -14.812,-7.496 -18.335,-12.355 2.854,-0.097 6.063,1.753 9.017,3.014 4.835,2.058 10.65,3.523 11.725,8.434 z"
   id="path22"
   inkscape:connector-curvature="0" />
					<path
   d="m 173.005,94.579 c 3.311,2.809 9.467,5.955 6.012,10.546 -4.237,0.851 -5.53,-2.769 -7.517,-5.121 -2.428,-2.877 -6.055,-5.959 -8.414,-9.041 -2.781,-3.627 -7.46,-5.654 -8.419,-9.342 5.541,1.942 13.242,8.64 18.338,12.958 z"
   id="path24"
   inkscape:connector-curvature="0" />
					<path
   d="m 166.689,84.033 c 2.399,1.601 6.3,3.038 6.612,6.328 -6.894,-0.128 -11.212,-5.429 -14.426,-10.245 2.866,-0.951 5.378,2.288 7.814,3.917 z"
   id="path26"
   inkscape:connector-curvature="0" />
					<path
   d="m 167.592,101.208 c -1.589,1.372 -2.637,0.18 -3.307,-0.301 -5.799,-4.177 -13.56,-11.633 -15.63,-17.781 4.041,1.721 7.323,4.823 10.521,7.536 3.235,2.741 6.839,6.248 8.416,10.546 z"
   id="path28"
   inkscape:connector-curvature="0" />
					<path
   d="m 160.377,107.837 c -4.109,1.971 -5.386,-2.805 -6.91,-5.726 -1.096,-2.087 -2.38,-4.081 -3.307,-5.723 -2.54,-4.498 -5.357,-8.487 -5.413,-12.355 2.5,0.112 3.226,3.074 4.51,4.819 4.185,5.69 9.347,11.453 11.12,18.985 z"
   id="path30"
   inkscape:connector-curvature="0" />
					<path
   d="m 151.36,100.907 c -0.117,1.589 0.389,3.804 -0.599,4.519 -4.819,-0.092 -5.313,-5.702 -6.914,-9.643 -1.336,-3.282 -5.068,-7.126 -1.806,-8.736 4.15,3.575 6.04,9.413 9.319,13.86 z"
   id="path32"
   inkscape:connector-curvature="0" />
					<path
   d="m 145.649,108.74 c -0.618,0.084 -0.598,0.807 -0.902,1.207 -0.698,0 -1.4,0 -2.103,0 -3.255,-5.28 -5.478,-13.186 -6.614,-19.586 2.464,-0.016 3.583,3.588 4.811,6.329 1.871,4.181 4.307,7.206 4.808,12.05 z"
   id="path34"
   inkscape:connector-curvature="0" />
					<path
   d="m 132.123,55.706 c 5.185,1.031 11.673,9.43 12.925,8.74 -3.841,6.095 -8.026,13.439 -19.539,10.847 -0.016,-0.385 -0.385,-0.417 -0.297,-0.903 8.98,0.666 13.78,-2.857 16.228,-8.74 -2.071,-4.755 -7.031,-6.601 -12.625,-7.833 -1.405,-0.305 -5.189,1.894 -6.609,0.903 1.654,-2.773 6.305,-3.732 9.917,-3.014 z"
   id="path36"
   inkscape:connector-curvature="0" />
					<path
   d="m 145.048,57.512 c -1.216,0.851 -1.87,-0.008 -2.403,-0.301 -2.46,-1.348 -7.645,-3.222 -11.12,-3.616 -8.158,-0.919 -10.361,3.263 -16.533,3.315 -0.498,-2.745 -0.076,-7.075 1.2,-9.041 7.292,-4.229 16.838,-2.279 22.544,1.509 2.909,1.93 5.958,5.228 6.312,8.134 z"
   id="path38"
   inkscape:connector-curvature="0" />
					<path
   d="m 139.639,66.252 c 0.104,4.591 -9.502,6.693 -14.129,5.726 -2.203,-0.461 -8.495,-3.78 -8.415,-6.027 0.092,-2.644 8.267,-6.248 12.022,-6.027 4.041,0.236 10.461,3.575 10.522,6.328 z m -3.307,0 c -3.207,-4.041 -12.243,-4.792 -15.931,-0.602 1.212,5.814 13.716,4.695 15.931,0.602 z"
   id="path40"
   inkscape:connector-curvature="0" />
					<path
   d="m 133.025,88.852 c 0.879,4.101 8.307,19.258 1.505,20.494 -1.922,-2.604 -2.215,-8.667 -2.705,-13.262 -0.268,-2.504 -1.127,-6.357 1.2,-7.232 z"
   id="path42"
   inkscape:connector-curvature="0" />
					<path
   d="m 130.321,102.412 c 0.353,3.957 0.987,10.216 -2.103,10.249 -4.229,0.036 -2.508,-7.187 -2.106,-10.549 0.582,-4.856 0.534,-11.485 3.607,-11.75 -0.382,3.815 0.237,7.949 0.602,12.05 z"
   id="path44"
   inkscape:connector-curvature="0" />
					<path
   d="m 124.31,89.755 c -0.345,5.008 1.24,18.487 -3.909,19.286 -1.577,-1.056 -1.874,-3.259 -1.501,-6.023 0.582,-4.342 3.475,-11.429 5.41,-13.263 z"
   id="path46"
   inkscape:connector-curvature="0" />
					<path
   d="m 120.401,89.454 c -0.068,4.39 -3.977,12.773 -5.409,18.082 -0.871,3.223 -1.136,7.159 -5.112,5.727 -2.171,-3.725 0.128,-6.196 1.504,-9.342 0.815,-1.866 1.669,-3.8 2.404,-5.425 1.669,-3.693 3.611,-7.995 6.613,-9.042 z"
   id="path48"
   inkscape:connector-curvature="0" />
					<path
   d="m 111.986,91.264 c 1.369,-1.625 3.455,-3.652 4.808,-3.315 -2.673,5.558 -4.475,11.986 -9.017,15.67 -4.053,-2.801 1.119,-8.691 4.209,-12.355 z"
   id="path50"
   inkscape:connector-curvature="0" />
					<path
   d="m 113.186,86.44 c -1.545,3.323 -4.037,7.051 -6.613,10.55 -2.689,3.66 -6.557,9.017 -10.518,10.546 -0.521,-0.582 -0.682,-1.529 -1.204,-2.111 1.127,-3.824 3.62,-5.767 6.011,-8.134 3.833,-3.796 7.035,-9.097 12.324,-10.851 z"
   id="path52"
   inkscape:connector-curvature="0" />
					<path
   d="m 110.782,82.825 c -2.681,3.52 -6.573,9.262 -10.221,12.356 -1.802,1.529 -5.799,4.899 -6.613,1.509 2.271,-7.782 9.94,-11.722 16.834,-13.865 z"
   id="path54"
   inkscape:connector-curvature="0" />
					<path
   d="m 96.954,84.936 c 2.512,-1.533 5.414,-4.615 8.419,-3.014 -5.052,4.663 -12.708,10.63 -18.034,15.971 -0.931,0.931 -2.933,4.057 -4.811,3.616 -4.583,-1.08 1.051,-6.353 2.403,-7.532 4.117,-3.588 7.384,-6.204 12.023,-9.041 z"
   id="path56"
   inkscape:connector-curvature="0" />
					<path
   d="m 99.963,66.252 c 2.524,0.257 5.666,-0.478 6.609,1.509 -3.451,2.328 -12.592,2.873 -16.83,1.505 0,-0.803 0,-1.605 0,-2.412 2.115,-2.304 6.626,-0.967 10.221,-0.602 z"
   id="path58"
   inkscape:connector-curvature="0" />
					<path
   d="m 91.244,74.992 c 3.595,-1.075 8.403,-4.362 11.726,-2.11 -1.637,2.993 -6.782,3.085 -10.522,4.221 -1.914,0.578 -3.307,2.601 -5.71,1.204 -0.016,-0.385 -0.385,-0.417 -0.301,-0.903 0.348,-2.34 2.808,-1.814 4.807,-2.412 z"
   id="path60"
   inkscape:connector-curvature="0" />
					<path
   d="m 102.066,77.404 c -2.845,3.876 -6.878,6.565 -11.722,8.435 -0.89,-5.233 7.087,-7.645 11.722,-8.435 z"
   id="path62"
   inkscape:connector-curvature="0" />
				</g>
				<g
   id="g64">
				</g>
			</g>
			<g
   id="g66">
				<path
   d="m 42.73,58.073 3.989,2.875 -0.27,0.355 c -1.109,-0.577 -2.211,-0.765 -3.306,-0.563 -1.095,0.202 -1.932,0.684 -2.51,1.447 -0.447,0.589 -0.644,1.175 -0.589,1.757 0.055,0.582 0.286,1.029 0.696,1.34 0.26,0.197 0.537,0.312 0.831,0.344 0.399,0.039 0.871,-0.026 1.417,-0.194 0.396,-0.127 1.209,-0.498 2.439,-1.111 1.719,-0.862 3.06,-1.305 4.024,-1.329 0.96,-0.018 1.827,0.267 2.601,0.854 0.982,0.745 1.536,1.769 1.663,3.07 0.127,1.302 -0.256,2.542 -1.15,3.721 -0.28,0.37 -0.583,0.69 -0.908,0.963 -0.325,0.272 -0.78,0.578 -1.364,0.917 -0.326,0.189 -0.557,0.374 -0.693,0.553 -0.114,0.15 -0.177,0.353 -0.188,0.608 -0.011,0.255 0.062,0.524 0.22,0.809 l -0.243,0.32 -4.436,-3.365 0.243,-0.32 c 1.44,0.692 2.763,0.925 3.969,0.697 1.206,-0.228 2.126,-0.76 2.761,-1.598 0.491,-0.647 0.706,-1.296 0.645,-1.947 -0.061,-0.651 -0.326,-1.155 -0.793,-1.509 -0.277,-0.21 -0.602,-0.34 -0.973,-0.391 -0.372,-0.05 -0.789,-0.013 -1.25,0.11 -0.462,0.123 -1.169,0.423 -2.124,0.901 -1.336,0.67 -2.366,1.098 -3.091,1.286 -0.725,0.188 -1.411,0.234 -2.058,0.139 -0.646,-0.095 -1.244,-0.351 -1.793,-0.767 -0.936,-0.71 -1.473,-1.658 -1.609,-2.845 -0.137,-1.187 0.191,-2.303 0.984,-3.349 0.289,-0.381 0.616,-0.715 0.979,-1.003 0.275,-0.219 0.655,-0.452 1.138,-0.7 0.483,-0.248 0.784,-0.449 0.903,-0.605 0.114,-0.15 0.157,-0.304 0.131,-0.46 -0.027,-0.157 -0.188,-0.406 -0.483,-0.749 l 0.198,-0.261 z"
   id="path68"
   inkscape:connector-curvature="0" />
				<path
   d="m 45.498,55.079 5.425,-5.34 0.282,0.287 -0.271,0.267 c -0.408,0.402 -0.646,0.721 -0.715,0.956 -0.068,0.235 -0.062,0.46 0.021,0.673 0.083,0.213 0.419,0.62 1.009,1.219 l 5.066,5.146 c 0.926,0.94 1.61,1.493 2.052,1.658 0.442,0.166 0.925,0.188 1.449,0.069 0.524,-0.119 1.034,-0.423 1.53,-0.911 0.568,-0.559 0.927,-1.164 1.076,-1.814 0.148,-0.65 0.101,-1.297 -0.143,-1.942 -0.244,-0.646 -0.915,-1.526 -2.013,-2.642 L 56.047,48.42 c -0.463,-0.47 -0.843,-0.758 -1.139,-0.863 -0.297,-0.105 -0.558,-0.122 -0.784,-0.052 -0.349,0.11 -0.736,0.374 -1.16,0.791 l -0.282,-0.287 3.635,-3.578 0.282,0.287 -0.217,0.214 c -0.294,0.29 -0.481,0.591 -0.561,0.903 -0.08,0.313 -0.046,0.63 0.1,0.955 0.096,0.231 0.354,0.562 0.777,0.99 l 3.929,3.991 c 1.216,1.235 2.012,2.207 2.388,2.914 0.376,0.708 0.476,1.602 0.298,2.682 -0.178,1.081 -0.812,2.157 -1.901,3.23 -0.909,0.895 -1.731,1.465 -2.466,1.711 -1.002,0.335 -1.897,0.382 -2.685,0.14 C 55.473,62.206 54.65,61.649 53.79,60.776 L 48.725,55.63 C 48.13,55.026 47.726,54.683 47.514,54.602 47.302,54.52 47.07,54.518 46.818,54.593 c -0.252,0.075 -0.597,0.333 -1.037,0.776 l -0.283,-0.29 z"
   id="path70"
   inkscape:connector-curvature="0" />
				<path
   d="m 67.546,46.143 2.399,3.312 c 0.468,0.646 0.802,1.023 1.002,1.133 0.201,0.11 0.438,0.142 0.713,0.095 0.275,-0.047 0.682,-0.266 1.222,-0.658 l 0.236,0.326 -6.068,4.396 -0.236,-0.326 c 0.552,-0.4 0.889,-0.722 1.011,-0.967 0.122,-0.245 0.163,-0.479 0.124,-0.701 -0.04,-0.222 -0.294,-0.656 -0.762,-1.301 l -5.614,-7.75 c -0.468,-0.646 -0.802,-1.023 -1.002,-1.133 -0.201,-0.11 -0.437,-0.143 -0.708,-0.098 -0.272,0.045 -0.681,0.265 -1.227,0.661 L 58.4,42.805 63.605,39.034 c 1.714,-1.242 3.165,-1.828 4.353,-1.757 1.188,0.071 2.114,0.563 2.777,1.479 0.562,0.775 0.801,1.613 0.72,2.513 -0.082,0.901 -0.473,1.757 -1.174,2.569 -0.467,0.554 -1.379,1.322 -2.735,2.305 z m -4.236,-5.848 3.739,5.161 c 0.203,-0.129 0.354,-0.229 0.453,-0.302 0.716,-0.519 1.114,-1.131 1.193,-1.838 0.08,-0.706 -0.204,-1.505 -0.851,-2.398 -0.643,-0.886 -1.306,-1.395 -1.992,-1.525 -0.685,-0.13 -1.412,0.083 -2.181,0.641 l -0.361,0.261 z"
   id="path72"
   inkscape:connector-curvature="0" />
				<path
   d="m 79.293,38.608 1.892,3.674 c 0.365,0.709 0.639,1.133 0.82,1.271 0.181,0.138 0.41,0.207 0.686,0.203 0.275,-0.003 0.713,-0.159 1.312,-0.468 l 0.185,0.357 -6.709,3.456 -0.184,-0.357 c 0.605,-0.313 0.987,-0.58 1.146,-0.804 0.158,-0.224 0.234,-0.449 0.228,-0.674 -0.006,-0.226 -0.191,-0.692 -0.557,-1.401 L 73.73,35.357 c -0.365,-0.708 -0.639,-1.133 -0.82,-1.271 -0.181,-0.138 -0.41,-0.207 -0.686,-0.204 -0.276,0.003 -0.713,0.16 -1.313,0.468 l -0.184,-0.358 6.09,-3.137 c 1.585,-0.817 2.802,-1.305 3.649,-1.464 0.848,-0.16 1.655,-0.064 2.423,0.287 0.768,0.351 1.356,0.923 1.764,1.715 0.498,0.967 0.562,1.945 0.191,2.935 -0.239,0.629 -0.707,1.249 -1.403,1.86 l 5.438,2.814 c 0.708,0.361 1.185,0.568 1.432,0.62 0.367,0.064 0.73,0.016 1.088,-0.145 l 0.184,0.358 -4.128,2.126 -7.302,-3.799 -0.86,0.446 z m -3.311,-6.429 2.958,5.743 0.551,-0.284 c 0.896,-0.461 1.523,-0.889 1.884,-1.282 0.36,-0.394 0.557,-0.87 0.591,-1.43 0.034,-0.56 -0.127,-1.185 -0.482,-1.874 -0.515,-0.999 -1.128,-1.617 -1.841,-1.853 -0.713,-0.236 -1.588,-0.087 -2.626,0.447 l -1.035,0.533 z"
   id="path74"
   inkscape:connector-curvature="0" />
				<path
   d="m 92.352,25.087 1.871,5.704 0.279,-0.092 c 0.889,-0.291 1.441,-0.782 1.657,-1.471 0.217,-0.689 0.202,-1.596 -0.045,-2.72 l 0.393,-0.129 2.407,7.336 -0.393,0.128 c -0.345,-0.771 -0.734,-1.369 -1.166,-1.792 -0.433,-0.422 -0.854,-0.664 -1.262,-0.725 -0.409,-0.06 -0.948,0.019 -1.616,0.238 l 1.295,3.947 c 0.253,0.771 0.44,1.233 0.563,1.383 0.122,0.151 0.291,0.252 0.506,0.303 0.215,0.052 0.522,0.012 0.922,-0.119 L 98.6,36.803 c 1.309,-0.429 2.258,-1.077 2.848,-1.941 0.59,-0.865 0.854,-1.974 0.791,-3.327 l 0.382,-0.125 0.831,4.66 -12.11,3.973 -0.125,-0.382 0.465,-0.153 c 0.406,-0.133 0.71,-0.313 0.91,-0.539 0.147,-0.155 0.231,-0.366 0.25,-0.632 0.021,-0.19 -0.083,-0.637 -0.313,-1.339 L 89.505,27.781 C 89.297,27.148 89.152,26.764 89.07,26.631 88.922,26.412 88.734,26.268 88.505,26.198 88.18,26.091 87.79,26.112 87.336,26.261 l -0.465,0.152 -0.125,-0.382 11.728,-3.848 1.359,4.143 -0.393,0.129 c -0.532,-0.947 -1.051,-1.582 -1.558,-1.904 -0.507,-0.322 -1.124,-0.478 -1.853,-0.468 -0.426,0.002 -1.17,0.178 -2.231,0.526 l -1.446,0.478 z"
   id="path76"
   inkscape:connector-curvature="0" />
				<path
   d="m 114.207,29.031 2.675,-10.167 5.949,-0.797 0.054,0.399 -0.474,0.063 c -0.432,0.058 -0.766,0.18 -1.004,0.365 -0.167,0.125 -0.288,0.313 -0.363,0.564 -0.056,0.183 -0.036,0.637 0.062,1.363 l 1.292,9.636 c 0.101,0.748 0.202,1.209 0.307,1.386 0.104,0.176 0.288,0.318 0.551,0.425 0.263,0.107 0.599,0.133 1.009,0.079 l 0.475,-0.063 0.053,0.399 -7.631,1.022 -0.054,-0.399 0.474,-0.063 c 0.431,-0.058 0.766,-0.179 1.004,-0.365 0.167,-0.125 0.287,-0.316 0.362,-0.575 0.056,-0.183 0.035,-0.641 -0.063,-1.374 l -1.452,-10.832 -3.818,14.083 -0.258,0.035 -7.465,-12.473 1.38,10.293 c 0.096,0.719 0.173,1.158 0.231,1.319 0.142,0.347 0.384,0.612 0.727,0.797 0.343,0.185 0.849,0.232 1.517,0.142 l 0.053,0.399 -5.001,0.67 -0.053,-0.399 0.15,-0.021 c 0.325,-0.036 0.619,-0.128 0.885,-0.277 0.265,-0.149 0.457,-0.326 0.576,-0.533 0.119,-0.206 0.195,-0.483 0.229,-0.832 0.003,-0.081 -0.039,-0.448 -0.126,-1.102 l -1.24,-9.248 c -0.099,-0.74 -0.201,-1.196 -0.304,-1.369 -0.104,-0.172 -0.287,-0.313 -0.55,-0.42 -0.263,-0.107 -0.599,-0.134 -1.009,-0.079 l -0.463,0.062 -0.054,-0.399 5.971,-0.8 5.396,9.086 z"
   id="path78"
   inkscape:connector-curvature="0" />
				<path
   d="m 131.312,19.345 -0.286,5.996 0.293,0.014 c 0.935,0.044 1.625,-0.216 2.073,-0.783 0.448,-0.567 0.757,-1.419 0.928,-2.558 l 0.413,0.02 -0.368,7.712 -0.413,-0.02 c -0.047,-0.844 -0.197,-1.541 -0.45,-2.09 -0.253,-0.549 -0.56,-0.925 -0.921,-1.127 -0.36,-0.202 -0.892,-0.32 -1.594,-0.354 l -0.198,4.149 c -0.039,0.811 -0.028,1.309 0.033,1.493 0.06,0.185 0.181,0.339 0.364,0.464 0.183,0.125 0.484,0.197 0.904,0.217 l 0.879,0.042 c 1.376,0.065 2.494,-0.201 3.354,-0.798 0.859,-0.598 1.501,-1.54 1.925,-2.826 l 0.402,0.019 -0.886,4.65 -12.73,-0.607 0.019,-0.402 0.489,0.023 c 0.427,0.02 0.775,-0.04 1.043,-0.179 0.193,-0.092 0.346,-0.259 0.459,-0.5 0.088,-0.17 0.149,-0.624 0.185,-1.363 l 0.462,-9.689 c 0.032,-0.667 0.033,-1.077 0.004,-1.23 -0.061,-0.257 -0.185,-0.458 -0.374,-0.605 -0.266,-0.216 -0.637,-0.335 -1.115,-0.358 l -0.489,-0.023 0.019,-0.402 12.329,0.588 -0.208,4.356 -0.413,-0.02 c -0.159,-1.075 -0.417,-1.853 -0.776,-2.334 -0.358,-0.481 -0.879,-0.848 -1.564,-1.098 -0.399,-0.149 -1.156,-0.251 -2.271,-0.304 l -1.521,-0.073 z"
   id="path80"
   inkscape:connector-curvature="0" />
				<path
   d="m 162.471,23.605 -1.325,4.936 -0.41,-0.11 c 0.038,-1.371 -0.271,-2.512 -0.927,-3.424 -0.656,-0.912 -1.517,-1.51 -2.581,-1.796 -0.889,-0.239 -1.773,-0.202 -2.652,0.11 -0.88,0.312 -1.603,0.835 -2.167,1.569 -0.725,0.939 -1.261,2.056 -1.608,3.352 -0.342,1.274 -0.493,2.478 -0.451,3.611 0.04,1.133 0.332,2.06 0.875,2.78 0.542,0.72 1.359,1.226 2.452,1.52 0.896,0.24 1.77,0.265 2.62,0.073 0.852,-0.192 1.818,-0.656 2.902,-1.394 l -0.33,1.229 c -1.021,0.619 -2.016,1 -2.98,1.142 -0.966,0.142 -2.025,0.059 -3.181,-0.251 -1.52,-0.408 -2.787,-1.075 -3.804,-2 -1.017,-0.925 -1.691,-2.045 -2.026,-3.359 -0.334,-1.313 -0.328,-2.614 0.018,-3.902 0.364,-1.358 1.065,-2.551 2.104,-3.579 1.037,-1.027 2.251,-1.715 3.639,-2.063 1.389,-0.348 2.762,-0.339 4.12,0.025 1.001,0.269 2,0.77 2.997,1.502 0.577,0.425 0.952,0.661 1.127,0.708 0.225,0.06 0.44,0.03 0.649,-0.09 0.209,-0.12 0.386,-0.353 0.53,-0.696 l 0.409,0.107 z"
   id="path82"
   inkscape:connector-curvature="0" />
				<path
   d="m 173.288,28.284 c 2.168,0.908 3.612,2.332 4.332,4.271 0.72,1.939 0.619,3.902 -0.301,5.889 -0.786,1.697 -1.975,2.96 -3.564,3.79 -2.108,1.101 -4.362,1.096 -6.764,-0.016 -2.407,-1.115 -3.892,-2.793 -4.451,-5.034 -0.443,-1.771 -0.254,-3.541 0.565,-5.311 0.92,-1.987 2.362,-3.33 4.328,-4.03 1.966,-0.699 3.918,-0.552 5.855,0.441 z m -0.174,0.686 c -1.224,-0.566 -2.444,-0.373 -3.661,0.582 -0.995,0.785 -1.938,2.139 -2.826,4.06 -1.058,2.283 -1.438,4.156 -1.141,5.62 0.205,1.022 0.812,1.766 1.818,2.232 0.678,0.313 1.319,0.412 1.926,0.292 0.773,-0.153 1.536,-0.617 2.286,-1.392 0.75,-0.775 1.47,-1.906 2.158,-3.392 0.82,-1.77 1.269,-3.17 1.347,-4.201 0.077,-1.031 -0.055,-1.845 -0.397,-2.443 -0.342,-0.598 -0.846,-1.051 -1.51,-1.358 z"
   id="path84"
   inkscape:connector-curvature="0" />
				<path
   d="m 183.189,33.435 6.265,4.325 -0.229,0.331 -0.313,-0.216 c -0.472,-0.326 -0.829,-0.5 -1.073,-0.523 -0.244,-0.023 -0.463,0.026 -0.657,0.148 -0.194,0.122 -0.53,0.528 -1.008,1.22 l -4.102,5.942 c -0.75,1.086 -1.164,1.862 -1.243,2.327 -0.079,0.465 -0.011,0.944 0.205,1.436 0.215,0.492 0.608,0.936 1.182,1.331 0.656,0.453 1.317,0.692 1.983,0.715 0.666,0.024 1.294,-0.145 1.882,-0.505 0.588,-0.36 1.326,-1.185 2.216,-2.474 l 3.417,-4.949 c 0.374,-0.542 0.586,-0.97 0.633,-1.281 0.047,-0.311 0.016,-0.571 -0.096,-0.78 -0.174,-0.322 -0.506,-0.653 -0.994,-0.99 l 0.228,-0.331 4.198,2.897 -0.229,0.332 -0.251,-0.173 c -0.34,-0.235 -0.671,-0.362 -0.992,-0.381 -0.322,-0.02 -0.628,0.073 -0.919,0.278 -0.209,0.137 -0.484,0.454 -0.827,0.949 l -3.182,4.609 c -0.984,1.426 -1.788,2.39 -2.413,2.893 -0.624,0.502 -1.483,0.768 -2.578,0.797 -1.094,0.028 -2.271,-0.392 -3.529,-1.261 -1.051,-0.725 -1.765,-1.425 -2.145,-2.101 -0.518,-0.921 -0.732,-1.792 -0.643,-2.61 0.09,-0.819 0.482,-1.733 1.179,-2.741 l 4.103,-5.942 c 0.481,-0.698 0.742,-1.159 0.782,-1.383 0.04,-0.224 -10e-4,-0.452 -0.122,-0.685 -0.12,-0.233 -0.439,-0.524 -0.957,-0.872 l 0.229,-0.332 z"
   id="path86"
   inkscape:connector-curvature="0" />
				<path
   d="m 196.101,53.319 -2.869,2.974 c -0.554,0.574 -0.867,0.97 -0.94,1.186 -0.072,0.217 -0.063,0.455 0.028,0.715 0.092,0.26 0.381,0.624 0.866,1.092 l -0.279,0.29 -5.432,-5.239 0.279,-0.29 c 0.49,0.473 0.866,0.748 1.13,0.825 0.263,0.078 0.5,0.077 0.711,-10e-4 0.212,-0.078 0.594,-0.404 1.147,-0.979 l 6.644,-6.888 c 0.554,-0.574 0.867,-0.969 0.94,-1.186 0.073,-0.217 0.063,-0.455 -0.028,-0.715 -0.093,-0.26 -0.381,-0.624 -0.866,-1.092 l 0.279,-0.29 4.932,4.756 c 1.283,1.238 2.137,2.233 2.561,2.984 0.424,0.751 0.594,1.547 0.509,2.386 -0.085,0.84 -0.438,1.581 -1.056,2.223 -0.755,0.783 -1.661,1.158 -2.718,1.126 -0.672,-0.024 -1.41,-0.267 -2.213,-0.729 l -0.914,6.054 c -0.113,0.787 -0.155,1.306 -0.125,1.556 0.058,0.368 0.221,0.696 0.486,0.983 l -0.279,0.29 -3.342,-3.224 1.245,-8.136 -0.696,-0.671 z m 5.019,-5.205 -4.483,4.649 0.445,0.43 c 0.726,0.7 1.333,1.157 1.821,1.371 0.488,0.214 1.002,0.247 1.544,0.099 0.54,-0.148 1.08,-0.501 1.618,-1.06 0.78,-0.809 1.167,-1.588 1.161,-2.34 -0.006,-0.751 -0.429,-1.531 -1.269,-2.342 l -0.837,-0.807 z"
   id="path88"
   inkscape:connector-curvature="0" />
				<path
   d="m 218.104,66.443 -3.166,2.43 -0.238,-0.311 c 0.589,-0.745 0.957,-1.352 1.104,-1.821 0.146,-0.469 0.165,-0.973 0.055,-1.509 -0.063,-0.298 -0.306,-0.72 -0.725,-1.267 l -0.669,-0.871 -9.024,6.925 c -0.598,0.459 -0.946,0.779 -1.045,0.96 -0.1,0.181 -0.131,0.411 -0.095,0.689 0.035,0.279 0.182,0.585 0.438,0.919 l 0.298,0.388 -0.319,0.245 -4.7,-6.125 0.319,-0.245 0.298,0.388 c 0.261,0.339 0.53,0.566 0.81,0.681 0.195,0.088 0.424,0.1 0.686,0.036 0.187,-0.042 0.573,-0.289 1.16,-0.739 l 9.024,-6.925 -0.649,-0.846 c -0.604,-0.788 -1.211,-1.232 -1.818,-1.333 -0.85,-0.143 -1.756,0.05 -2.721,0.58 l -0.251,-0.328 3.166,-2.43 8.062,10.509 z"
   id="path90"
   inkscape:connector-curvature="0" />
			</g>
			<g
   id="g92">
				<path
   d="m 61.743,194.987 c 1.824,1.645 2.756,3.548 2.796,5.71 0.04,2.161 -0.738,4.063 -2.332,5.703 -1.362,1.402 -2.971,2.238 -4.826,2.506 -2.459,0.357 -4.681,-0.427 -6.665,-2.354 -1.989,-1.932 -2.873,-4.1 -2.651,-6.503 0.176,-1.899 0.974,-3.58 2.394,-5.042 1.594,-1.642 3.481,-2.468 5.662,-2.479 2.181,-0.008 4.055,0.811 5.622,2.459 z m -0.409,0.617 c -1.011,-0.981 -2.282,-1.212 -3.812,-0.691 -1.252,0.432 -2.65,1.439 -4.191,3.027 -1.832,1.886 -2.854,3.602 -3.067,5.147 -0.151,1.079 0.19,2.022 1.022,2.83 0.56,0.544 1.159,0.862 1.798,0.955 0.816,0.116 1.728,-0.078 2.736,-0.583 1.008,-0.505 2.108,-1.371 3.302,-2.6 1.419,-1.463 2.346,-2.688 2.779,-3.678 0.433,-0.989 0.584,-1.838 0.453,-2.546 -0.131,-0.708 -0.471,-1.328 -1.02,-1.861 z"
   id="path94"
   inkscape:connector-curvature="0" />
				<path
   d="m 72.008,205.012 -3.649,5.172 0.362,0.256 c 0.557,0.393 1.071,0.631 1.542,0.712 0.471,0.082 0.968,0.012 1.492,-0.213 0.524,-0.224 1.061,-0.646 1.611,-1.269 l 0.325,0.229 -4.461,6.323 -0.325,-0.229 c 0.725,-1.278 0.96,-2.292 0.707,-3.042 -0.255,-0.75 -0.713,-1.358 -1.375,-1.825 l -0.362,-0.256 -2.719,3.854 c -0.455,0.645 -0.703,1.071 -0.745,1.282 -0.042,0.212 -0.002,0.45 0.12,0.718 0.122,0.267 0.359,0.525 0.712,0.774 l 0.418,0.294 -0.243,0.344 -6.583,-4.645 0.242,-0.344 0.418,0.295 c 0.365,0.258 0.705,0.4 1.02,0.427 0.222,0.027 0.451,-0.034 0.686,-0.184 0.173,-0.1 0.482,-0.466 0.928,-1.098 l 5.844,-8.283 c 0.454,-0.644 0.704,-1.07 0.75,-1.279 0.046,-0.209 0.007,-0.447 -0.115,-0.714 -0.123,-0.267 -0.36,-0.525 -0.713,-0.774 l -0.418,-0.294 0.243,-0.344 10.623,7.494 -2.548,3.612 -0.381,-0.269 c 0.512,-0.909 0.734,-1.693 0.666,-2.354 -0.068,-0.659 -0.38,-1.311 -0.937,-1.954 -0.306,-0.354 -0.96,-0.887 -1.963,-1.594 l -1.172,-0.822 z"
   id="path96"
   inkscape:connector-curvature="0" />
				<path
   d="m 107.305,220.491 -0.138,0.396 c -0.279,-0.073 -0.534,-0.077 -0.765,-0.014 -0.231,0.064 -0.464,0.204 -0.699,0.419 -0.073,0.07 -0.491,0.547 -1.255,1.428 l -8.741,10.423 -0.418,-0.146 -0.342,-10.636 -7.236,7.999 -0.397,-0.138 -0.652,-13.548 c -0.071,-1.364 -0.159,-2.205 -0.265,-2.523 -0.106,-0.317 -0.38,-0.577 -0.824,-0.779 l 0.138,-0.397 6.312,2.196 -0.139,0.397 c -0.513,-0.163 -0.877,-0.204 -1.094,-0.123 -0.217,0.081 -0.361,0.226 -0.434,0.434 -0.095,0.271 -0.12,0.908 -0.075,1.911 l 0.397,8.056 4.206,-4.722 -0.063,-1.754 c -0.035,-0.959 -0.093,-1.611 -0.174,-1.956 -0.081,-0.345 -0.216,-0.619 -0.406,-0.821 -0.19,-0.202 -0.511,-0.382 -0.962,-0.539 l 0.138,-0.397 7.052,2.454 -0.138,0.397 c -0.496,-0.165 -0.864,-0.249 -1.104,-0.252 -0.168,-0.002 -0.315,0.041 -0.442,0.129 -0.127,0.088 -0.216,0.208 -0.269,0.357 -0.057,0.165 -0.072,0.726 -0.044,1.682 l 0.253,7.813 4.542,-5.41 c 0.475,-0.558 0.781,-0.943 0.921,-1.16 0.14,-0.216 0.244,-0.424 0.314,-0.624 0.102,-0.294 0.082,-0.56 -0.06,-0.798 -0.142,-0.237 -0.493,-0.462 -1.053,-0.673 l 0.138,-0.397 3.778,1.316 z"
   id="path98"
   inkscape:connector-curvature="0" />
				<path
   d="m 112.22,235.956 -0.074,0.414 -7.932,-1.414 0.074,-0.414 0.503,0.09 c 0.44,0.078 0.809,0.063 1.105,-0.045 0.212,-0.07 0.394,-0.223 0.543,-0.458 0.114,-0.164 0.239,-0.627 0.375,-1.388 l 1.779,-9.979 c 0.138,-0.775 0.183,-1.268 0.136,-1.477 -0.048,-0.208 -0.183,-0.408 -0.407,-0.598 -0.224,-0.19 -0.548,-0.323 -0.974,-0.398 l -0.503,-0.09 0.074,-0.414 7.933,1.413 -0.074,0.415 -0.503,-0.09 c -0.44,-0.079 -0.809,-0.063 -1.105,0.045 -0.212,0.07 -0.397,0.222 -0.554,0.456 -0.114,0.164 -0.239,0.626 -0.375,1.388 l -1.778,9.979 c -0.139,0.775 -0.182,1.269 -0.131,1.478 0.051,0.209 0.189,0.408 0.413,0.599 0.224,0.189 0.549,0.322 0.974,0.398 l 0.501,0.09 z"
   id="path100"
   inkscape:connector-curvature="0" />
				<path
   d="m 125.344,221.696 -0.238,5.133 -0.465,-0.033 c -0.128,-1.3 -0.594,-2.372 -1.396,-3.215 -0.802,-0.843 -1.702,-1.3 -2.7,-1.37 -0.771,-0.055 -1.396,0.108 -1.875,0.488 -0.479,0.38 -0.737,0.838 -0.775,1.375 -0.024,0.34 0.034,0.647 0.174,0.924 0.194,0.37 0.521,0.747 0.979,1.129 0.337,0.274 1.126,0.774 2.366,1.5 1.736,1.012 2.89,1.933 3.461,2.763 0.564,0.83 0.81,1.752 0.738,2.764 -0.091,1.285 -0.67,2.355 -1.737,3.21 -1.067,0.855 -2.371,1.228 -3.913,1.118 -0.484,-0.034 -0.938,-0.115 -1.361,-0.244 -0.423,-0.129 -0.951,-0.353 -1.582,-0.67 -0.352,-0.177 -0.645,-0.273 -0.879,-0.29 -0.196,-0.015 -0.41,0.046 -0.64,0.182 -0.229,0.137 -0.423,0.354 -0.582,0.654 l -0.419,-0.029 0.411,-5.805 0.419,0.03 c 0.217,1.655 0.769,2.946 1.657,3.871 0.888,0.925 1.879,1.426 2.975,1.504 0.847,0.06 1.538,-0.123 2.073,-0.549 0.535,-0.425 0.825,-0.943 0.868,-1.556 0.026,-0.363 -0.045,-0.722 -0.214,-1.075 -0.168,-0.354 -0.438,-0.697 -0.81,-1.031 -0.372,-0.334 -1.039,-0.781 -2.001,-1.344 -1.35,-0.787 -2.313,-1.443 -2.891,-1.971 -0.578,-0.527 -1.01,-1.101 -1.296,-1.721 -0.286,-0.62 -0.404,-1.29 -0.353,-2.008 0.086,-1.225 0.61,-2.235 1.57,-3.033 0.96,-0.798 2.125,-1.148 3.492,-1.052 0.499,0.035 0.979,0.131 1.438,0.284 0.349,0.116 0.77,0.315 1.262,0.597 0.493,0.282 0.841,0.43 1.045,0.444 0.197,0.014 0.356,-0.035 0.478,-0.148 0.122,-0.113 0.248,-0.396 0.379,-0.851 l 0.342,0.025 z"
   id="path102"
   inkscape:connector-curvature="0" />
				<path
   d="m 141.646,220.868 0.381,5.327 -0.442,0.031 c -0.433,-1.366 -1.128,-2.388 -2.087,-3.063 -0.96,-0.677 -2.014,-0.973 -3.163,-0.891 -0.959,0.068 -1.82,0.407 -2.582,1.016 -0.761,0.609 -1.295,1.373 -1.602,2.291 -0.395,1.176 -0.542,2.462 -0.441,3.859 0.098,1.376 0.361,2.616 0.79,3.721 0.428,1.105 1.033,1.92 1.815,2.445 0.782,0.525 1.762,0.746 2.941,0.661 0.967,-0.069 1.838,-0.344 2.614,-0.824 0.773,-0.481 1.57,-1.271 2.388,-2.37 l 0.095,1.326 c -0.797,0.961 -1.647,1.677 -2.553,2.147 -0.904,0.472 -1.979,0.752 -3.226,0.841 -1.64,0.117 -3.121,-0.107 -4.441,-0.674 -1.32,-0.567 -2.37,-1.44 -3.15,-2.623 -0.779,-1.183 -1.219,-2.469 -1.318,-3.859 -0.105,-1.466 0.179,-2.884 0.853,-4.254 0.673,-1.369 1.635,-2.464 2.887,-3.282 1.251,-0.819 2.61,-1.281 4.077,-1.386 1.081,-0.077 2.238,0.075 3.474,0.458 0.715,0.223 1.166,0.327 1.355,0.313 0.242,-0.018 0.445,-0.121 0.61,-0.312 0.164,-0.19 0.26,-0.48 0.285,-0.869 l 0.44,-0.029 z"
   id="path104"
   inkscape:connector-curvature="0" />
				<path
   d="m 150.358,219.025 c 2.361,-0.677 4.47,-0.459 6.324,0.652 1.854,1.111 3.055,2.777 3.603,4.999 0.469,1.898 0.324,3.705 -0.431,5.42 -1,2.276 -2.842,3.744 -5.526,4.407 -2.692,0.663 -4.999,0.265 -6.921,-1.197 -1.518,-1.154 -2.521,-2.722 -3.008,-4.7 -0.548,-2.222 -0.249,-4.26 0.897,-6.115 1.146,-1.854 2.834,-3.01 5.062,-3.466 z m 0.307,0.673 c -1.368,0.338 -2.237,1.294 -2.605,2.867 -0.298,1.291 -0.183,3.01 0.348,5.158 0.629,2.552 1.543,4.328 2.741,5.328 0.836,0.699 1.816,0.909 2.942,0.632 0.758,-0.187 1.345,-0.526 1.762,-1.02 0.531,-0.63 0.85,-1.507 0.955,-2.629 0.105,-1.122 -0.047,-2.515 -0.456,-4.178 -0.488,-1.979 -1.038,-3.413 -1.647,-4.305 -0.61,-0.892 -1.25,-1.469 -1.92,-1.733 -0.671,-0.262 -1.377,-0.302 -2.12,-0.12 z"
   id="path106"
   inkscape:connector-curvature="0" />
				<path
   d="m 163.323,215.089 10.801,5.699 -2.661,-6.067 c -0.371,-0.847 -0.743,-1.366 -1.117,-1.558 -0.51,-0.257 -1.153,-0.206 -1.931,0.151 l -0.169,-0.385 4.663,-2.045 0.169,0.386 c -0.564,0.338 -0.921,0.612 -1.072,0.823 -0.152,0.212 -0.225,0.479 -0.219,0.804 0.006,0.325 0.154,0.819 0.446,1.485 l 5.152,11.75 -0.354,0.155 -14.696,-7.565 3.934,8.972 c 0.356,0.813 0.782,1.279 1.278,1.4 0.496,0.122 0.982,0.077 1.462,-0.132 l 0.333,-0.146 0.169,0.385 -5.007,2.195 -0.169,-0.385 c 0.774,-0.348 1.246,-0.744 1.414,-1.19 0.168,-0.446 0.089,-1.044 -0.24,-1.794 l -4.367,-9.96 -0.467,-0.242 c -0.462,-0.244 -0.834,-0.374 -1.115,-0.393 -0.28,-0.017 -0.639,0.062 -1.075,0.236 l -0.169,-0.385 5.007,-2.194 z"
   id="path108"
   inkscape:connector-curvature="0" />
				<path
   d="m 181.4,204.997 2.826,4.291 -0.396,0.247 c -0.868,-0.977 -1.875,-1.569 -3.02,-1.779 -1.145,-0.21 -2.142,-0.05 -2.989,0.479 -0.655,0.409 -1.065,0.909 -1.229,1.497 -0.163,0.59 -0.103,1.112 0.182,1.568 0.181,0.289 0.409,0.504 0.685,0.645 0.375,0.187 0.86,0.299 1.456,0.337 0.435,0.024 1.366,-0.035 2.796,-0.178 1.999,-0.203 3.474,-0.137 4.425,0.199 0.943,0.339 1.685,0.939 2.223,1.801 0.682,1.092 0.843,2.298 0.482,3.616 -0.36,1.319 -1.195,2.389 -2.507,3.207 -0.411,0.257 -0.826,0.457 -1.244,0.603 -0.419,0.145 -0.977,0.274 -1.674,0.388 -0.389,0.064 -0.683,0.158 -0.882,0.283 -0.167,0.104 -0.304,0.279 -0.41,0.523 -0.106,0.245 -0.135,0.535 -0.086,0.871 l -0.356,0.223 -3.081,-4.936 0.356,-0.223 c 1.149,1.211 2.355,1.931 3.617,2.156 1.262,0.225 2.358,0.048 3.29,-0.534 0.721,-0.449 1.172,-1.003 1.354,-1.662 0.183,-0.658 0.111,-1.248 -0.214,-1.769 -0.192,-0.309 -0.461,-0.557 -0.805,-0.743 -0.345,-0.188 -0.766,-0.307 -1.263,-0.358 -0.496,-0.052 -1.299,-0.021 -2.408,0.091 -1.554,0.157 -2.72,0.192 -3.497,0.106 -0.777,-0.086 -1.465,-0.297 -2.061,-0.63 -0.597,-0.333 -1.086,-0.805 -1.467,-1.415 -0.65,-1.041 -0.821,-2.167 -0.514,-3.377 0.307,-1.21 1.043,-2.179 2.206,-2.904 0.424,-0.266 0.867,-0.47 1.33,-0.616 0.351,-0.111 0.808,-0.198 1.372,-0.261 0.564,-0.062 0.933,-0.146 1.106,-0.255 0.167,-0.104 0.267,-0.238 0.299,-0.401 0.032,-0.162 -0.032,-0.466 -0.193,-0.91 l 0.291,-0.18 z"
   id="path110"
   inkscape:connector-curvature="0" />
				<path
   d="m 198.403,211.25 0.259,0.331 -6.348,4.963 -0.259,-0.331 0.402,-0.315 c 0.353,-0.274 0.587,-0.56 0.704,-0.853 0.09,-0.205 0.097,-0.441 0.021,-0.71 -0.046,-0.194 -0.308,-0.596 -0.783,-1.205 l -6.244,-7.985 c -0.485,-0.621 -0.822,-0.982 -1.009,-1.087 -0.187,-0.104 -0.426,-0.136 -0.717,-0.096 -0.291,0.04 -0.606,0.192 -0.946,0.459 l -0.403,0.315 -0.259,-0.332 6.347,-4.963 0.26,0.331 -0.403,0.315 c -0.353,0.275 -0.587,0.56 -0.703,0.853 -0.09,0.205 -0.101,0.444 -0.031,0.717 0.047,0.194 0.308,0.597 0.783,1.205 l 6.244,7.985 c 0.486,0.621 0.823,0.982 1.014,1.084 0.189,0.102 0.43,0.132 0.722,0.092 0.29,-0.04 0.606,-0.192 0.946,-0.459 l 0.403,-0.314 z"
   id="path112"
   inkscape:connector-curvature="0" />
				<path
   d="m 193.049,195.884 12.138,1.353 -4.696,-4.674 c -0.655,-0.651 -1.192,-0.998 -1.61,-1.04 -0.567,-0.053 -1.148,0.23 -1.741,0.848 l -0.298,-0.296 3.591,-3.609 0.298,0.297 c -0.4,0.521 -0.633,0.906 -0.696,1.158 -0.063,0.252 -0.033,0.528 0.091,0.828 0.124,0.3 0.443,0.705 0.959,1.219 l 9.096,9.05 -0.273,0.273 -16.445,-1.662 6.944,6.909 c 0.629,0.626 1.196,0.904 1.702,0.836 0.506,-0.068 0.943,-0.288 1.313,-0.658 l 0.256,-0.258 0.298,0.297 -3.855,3.875 -0.298,-0.297 c 0.593,-0.606 0.886,-1.148 0.88,-1.626 -0.007,-0.477 -0.3,-1.003 -0.88,-1.58 l -7.71,-7.672 -0.522,-0.055 c -0.52,-0.058 -0.913,-0.043 -1.181,0.043 -0.268,0.087 -0.572,0.291 -0.915,0.613 l -0.298,-0.297 3.852,-3.875 z"
   id="path114"
   inkscape:connector-curvature="0" />
			</g>
			<polygon
   points="28.828,97.335 24.931,96.648 27.372,99.911 25.8,102.691 29.382,102.024 31.531,103.702 31.005,100.552 34.415,98.32 30.518,97.633 30.094,95.095 "
   id="polygon116" />
			<polygon
   points="25.512,108.261 21.555,108.261 24.526,111.05 23.461,114.062 26.872,112.782 29.279,114.062 28.214,111.05 31.186,108.261 27.228,108.261 26.37,105.835 "
   id="polygon118" />
			<polygon
   points="26.07,141.93 22.643,139.951 23.821,143.853 21.393,145.928 24.986,146.525 26.432,148.837 27.015,145.697 30.983,144.767 27.556,142.788 28.025,140.259 "
   id="polygon120" />
			<polygon
   points="27.895,154.812 24.308,153.139 25.822,156.923 23.584,159.202 27.216,159.484 28.858,161.661 29.165,158.481 33.037,157.209 29.45,155.536 29.698,152.976 "
   id="polygon122" />
			<polygon
   points="226.649,94.611 230.368,93.258 228.53,96.896 230.561,99.361 226.918,99.325 225.094,101.351 225.064,98.157 221.318,96.552 225.036,95.198 225.014,92.625 "
   id="polygon124" />
			<polygon
   points="229.469,107.093 233.291,106.068 231.144,109.532 232.952,112.165 229.326,111.813 227.331,113.671 227.581,110.487 223.988,108.562 227.812,107.537 228.012,104.972 "
   id="polygon126" />
			<polygon
   points="229.377,139.723 232.805,137.744 231.626,141.646 234.055,143.721 230.461,144.318 229.015,146.63 228.432,143.49 224.465,142.56 227.892,140.581 227.422,138.051 "
   id="polygon128" />
			<polygon
   points="227.367,151.446 231.087,150.093 229.249,153.729 231.279,156.195 227.637,156.16 225.812,158.186 225.782,154.992 222.036,153.387 225.756,152.033 225.731,149.46 "
   id="polygon130" />
			<g
   id="g132">
				<path
   d="m 235.489,118.038 c -0.924,0.058 -2.229,0.082 -3.618,0.088 0.001,-0.014 0.007,-0.026 0.007,-0.04 0,-0.58 -0.814,-1.051 -1.819,-1.051 -1.005,0 -1.819,0.471 -1.819,1.051 0,0.007 0.003,0.014 0.003,0.021 -2.11,-0.026 -3.777,-0.069 -3.777,-0.069 0,0 -0.418,4.414 2.193,4.414 2.611,0 6.633,0 6.633,0 0,0 2.398,-2.207 2.197,-4.414 z"
   id="path134"
   inkscape:connector-curvature="0" />
				<path
   d="m 227.464,120.595 0,0 c 0,-0.332 -0.127,-0.601 -0.284,-0.601 -0.157,0 -0.284,0.27 -0.284,0.602 0,0.062 0.005,0.119 0.013,0.174 -0.03,0.034 -0.046,0.07 -0.046,0.11 0,0.067 0.053,0.129 0.137,0.179 0.05,0.086 0.111,0.14 0.181,0.14 0.039,0 0.077,-0.018 0.111,-0.048 0.055,0.008 0.112,0.014 0.173,0.014 0.332,0 0.602,-0.127 0.602,-0.284 0,-0.157 -0.271,-0.286 -0.603,-0.286 z"
   id="path136"
   inkscape:connector-curvature="0"
   style="fill:#ffffff" />
			</g>
			<g
   id="g138">
				<path
   d="m 224.451,133.889 c 0.924,-0.058 2.229,-0.082 3.619,-0.088 -0.001,0.014 -0.007,0.026 -0.007,0.04 0,0.58 0.814,1.051 1.819,1.051 1.005,0 1.819,-0.471 1.819,-1.051 0,-0.008 -0.004,-0.014 -0.004,-0.021 2.11,0.026 3.778,0.069 3.778,0.069 0,0 0.418,-4.414 -2.193,-4.414 -2.611,0 -6.634,0 -6.634,0 0,0 -2.397,2.207 -2.197,4.414 z"
   id="path140"
   inkscape:connector-curvature="0" />
				<path
   d="m 232.478,131.332 0,0 c 0,0.332 0.127,0.601 0.284,0.601 0.157,0 0.284,-0.27 0.284,-0.603 0,-0.061 -0.006,-0.118 -0.014,-0.173 0.03,-0.034 0.047,-0.071 0.047,-0.11 0,-0.067 -0.053,-0.129 -0.137,-0.179 -0.05,-0.086 -0.112,-0.14 -0.181,-0.14 -0.04,0 -0.077,0.018 -0.111,0.048 -0.056,-0.008 -0.112,-0.014 -0.173,-0.014 -0.333,0 -0.603,0.127 -0.603,0.284 0,0.157 0.271,0.286 0.604,0.286 z"
   id="path142"
   inkscape:connector-curvature="0"
   style="fill:#ffffff" />
			</g>
			<g
   id="g144">
				<path
   d="m 30.851,120.295 c -0.923,0.059 -2.229,0.083 -3.619,0.088 0.001,-0.013 0.007,-0.025 0.007,-0.039 0,-0.581 -0.815,-1.052 -1.819,-1.052 -1.005,0 -1.82,0.471 -1.82,1.052 0,0.007 0.003,0.014 0.003,0.021 -2.11,-0.026 -3.778,-0.069 -3.778,-0.069 0,0 -0.418,4.414 2.194,4.414 2.611,0 6.633,0 6.633,0 0,0 2.399,-2.208 2.199,-4.415 z"
   id="path146"
   inkscape:connector-curvature="0" />
				<path
   d="m 22.825,122.853 0,0 c 0,-0.332 -0.127,-0.601 -0.285,-0.601 -0.158,0 -0.284,0.27 -0.284,0.602 0,0.061 0.005,0.118 0.013,0.174 -0.03,0.033 -0.046,0.07 -0.046,0.109 0,0.067 0.053,0.13 0.137,0.179 0.049,0.086 0.112,0.14 0.18,0.14 0.04,0 0.077,-0.017 0.111,-0.047 0.055,0.007 0.112,0.013 0.173,0.013 0.332,0 0.602,-0.127 0.602,-0.284 0,-0.157 -0.269,-0.285 -0.601,-0.285 z"
   id="path148"
   inkscape:connector-curvature="0"
   style="fill:#ffffff" />
			</g>
			<g
   id="g150">
				<path
   d="m 19.813,135.544 c 0.924,-0.058 2.229,-0.082 3.619,-0.088 -10e-4,0.014 -0.007,0.026 -0.007,0.04 0,0.58 0.814,1.051 1.819,1.051 1.005,0 1.819,-0.471 1.819,-1.051 0,-0.008 -0.003,-0.014 -0.003,-0.021 2.11,0.026 3.778,0.069 3.778,0.069 0,0 0.417,-4.414 -2.194,-4.414 -2.611,0 -6.633,0 -6.633,0 0,0 -2.399,2.207 -2.198,4.414 z"
   id="path152"
   inkscape:connector-curvature="0" />
				<path
   d="m 27.839,132.987 0,0 c 0,0.332 0.127,0.601 0.284,0.601 0.157,0 0.284,-0.27 0.284,-0.603 0,-0.061 -0.005,-0.118 -0.013,-0.173 0.03,-0.034 0.047,-0.071 0.047,-0.11 0,-0.067 -0.053,-0.129 -0.137,-0.179 -0.049,-0.086 -0.112,-0.14 -0.181,-0.14 -0.04,0 -0.077,0.018 -0.111,0.048 -0.056,-0.008 -0.113,-0.014 -0.173,-0.014 -0.333,0 -0.602,0.127 -0.602,0.284 0,0.157 0.269,0.286 0.602,0.286 z"
   id="path154"
   inkscape:connector-curvature="0"
   style="fill:#ffffff" />
			</g>
		</g>
	</g>
</g>
</svg>